<svg>
    <symbol id='arrow-right' viewBox="0 0 16 10" fill="none" xmlns="http://www.w3.org/2000/svg">
        <path fill-rule="evenodd" clip-rule="evenodd" d="M10.293 0.292787C10.4805 0.105316 10.7348 0 11 0C11.2652 0 11.5195 0.105316 11.707 0.292787L15.707 4.29279C15.8945 4.48031 15.9998 4.73462 15.9998 4.99979C15.9998 5.26495 15.8945 5.51926 15.707 5.70679L11.707 9.70679C11.5184 9.88894 11.2658 9.98974 11.0036 9.98746C10.7414 9.98518 10.4906 9.88001 10.3052 9.6946C10.1198 9.5092 10.0146 9.25838 10.0123 8.99619C10.01 8.73399 10.1108 8.48139 10.293 8.29279L12.586 5.99979H1C0.734784 5.99979 0.48043 5.89443 0.292893 5.70689C0.105357 5.51936 0 5.265 0 4.99979C0 4.73457 0.105357 4.48022 0.292893 4.29268C0.48043 4.10514 0.734784 3.99979 1 3.99979H12.586L10.293 1.70679C10.1055 1.51926 10.0002 1.26495 10.0002 0.999786C10.0002 0.734622 10.1055 0.480314 10.293 0.292787Z" fill="white"/>
    </symbol>

    <symbol id='pen' viewBox="0 0 24 24"  xmlns="http://www.w3.org/2000/svg">
        <path d="M18.1156 1.04487C18.4313 0.717978 18.809 0.45724 19.2266 0.277867C19.6441 0.0984936 20.0933 0.00407823 20.5477 0.000129225C21.0021 -0.00381978 21.4528 0.082777 21.8734 0.254867C22.2941 0.426956 22.6762 0.681092 22.9976 1.00245C23.3189 1.3238 23.573 1.70593 23.7451 2.12656C23.9172 2.54718 24.0038 2.99786 23.9999 3.4523C23.9959 3.90675 23.9015 4.35586 23.7221 4.77342C23.5428 5.19099 23.282 5.56865 22.9551 5.88437L21.5981 7.24142L16.7586 2.40191L18.1156 1.04487ZM14.3388 4.82167L0 19.1605V24H4.8395L19.18 9.66117L14.3371 4.82167H14.3388Z"/>
        <path d="M18.1156 1.04487C18.4313 0.717978 18.809 0.45724 19.2266 0.277867C19.6441 0.0984936 20.0933 0.00407823 20.5477 0.000129225C21.0021 -0.00381978 21.4528 0.082777 21.8734 0.254867C22.2941 0.426956 22.6762 0.681092 22.9976 1.00245C23.3189 1.3238 23.573 1.70593 23.7451 2.12656C23.9172 2.54718 24.0038 2.99786 23.9999 3.4523C23.9959 3.90675 23.9015 4.35586 23.7221 4.77342C23.5428 5.19099 23.282 5.56865 22.9551 5.88437L21.5981 7.24142L16.7586 2.40191L18.1156 1.04487ZM14.3388 4.82167L0 19.1605V24H4.8395L19.18 9.66117L14.3371 4.82167H14.3388Z"/>
        <defs>
        <linearGradient id="paint0_linear_50:1168" x1="-1.74629e-06" y1="29.9474" x2="23.7515" y2="26.1781" gradientUnits="userSpaceOnUse">
        <stop offset="0.209851" stop-color="#21D4FD"/>
        <stop offset="1" stop-color="#21D4FD"/>
        </linearGradient>
        </defs>
    </symbol>

</svg>