<svg>
    <symbol id='arrow-right' viewBox="0 0 16 10" fill="none" xmlns="http://www.w3.org/2000/svg">
        <path fill-rule="evenodd" clip-rule="evenodd" d="M10.293 0.292787C10.4805 0.105316 10.7348 0 11 0C11.2652 0 11.5195 0.105316 11.707 0.292787L15.707 4.29279C15.8945 4.48031 15.9998 4.73462 15.9998 4.99979C15.9998 5.26495 15.8945 5.51926 15.707 5.70679L11.707 9.70679C11.5184 9.88894 11.2658 9.98974 11.0036 9.98746C10.7414 9.98518 10.4906 9.88001 10.3052 9.6946C10.1198 9.5092 10.0146 9.25838 10.0123 8.99619C10.01 8.73399 10.1108 8.48139 10.293 8.29279L12.586 5.99979H1C0.734784 5.99979 0.48043 5.89443 0.292893 5.70689C0.105357 5.51936 0 5.265 0 4.99979C0 4.73457 0.105357 4.48022 0.292893 4.29268C0.48043 4.10514 0.734784 3.99979 1 3.99979H12.586L10.293 1.70679C10.1055 1.51926 10.0002 1.26495 10.0002 0.999786C10.0002 0.734622 10.1055 0.480314 10.293 0.292787Z" fill="white"/>
    </symbol>

    <symbol id='pen' viewBox="0 0 24 24"  xmlns="http://www.w3.org/2000/svg">
        <path d="M18.1156 1.04487C18.4313 0.717978 18.809 0.45724 19.2266 0.277867C19.6441 0.0984936 20.0933 0.00407823 20.5477 0.000129225C21.0021 -0.00381978 21.4528 0.082777 21.8734 0.254867C22.2941 0.426956 22.6762 0.681092 22.9976 1.00245C23.3189 1.3238 23.573 1.70593 23.7451 2.12656C23.9172 2.54718 24.0038 2.99786 23.9999 3.4523C23.9959 3.90675 23.9015 4.35586 23.7221 4.77342C23.5428 5.19099 23.282 5.56865 22.9551 5.88437L21.5981 7.24142L16.7586 2.40191L18.1156 1.04487ZM14.3388 4.82167L0 19.1605V24H4.8395L19.18 9.66117L14.3371 4.82167H14.3388Z"/>
        <path d="M18.1156 1.04487C18.4313 0.717978 18.809 0.45724 19.2266 0.277867C19.6441 0.0984936 20.0933 0.00407823 20.5477 0.000129225C21.0021 -0.00381978 21.4528 0.082777 21.8734 0.254867C22.2941 0.426956 22.6762 0.681092 22.9976 1.00245C23.3189 1.3238 23.573 1.70593 23.7451 2.12656C23.9172 2.54718 24.0038 2.99786 23.9999 3.4523C23.9959 3.90675 23.9015 4.35586 23.7221 4.77342C23.5428 5.19099 23.282 5.56865 22.9551 5.88437L21.5981 7.24142L16.7586 2.40191L18.1156 1.04487ZM14.3388 4.82167L0 19.1605V24H4.8395L19.18 9.66117L14.3371 4.82167H14.3388Z"/>
        <defs>
        <linearGradient id="paint0_linear_50:1168" x1="-1.74629e-06" y1="29.9474" x2="23.7515" y2="26.1781" gradientUnits="userSpaceOnUse">
        <stop offset="0.209851" stop-color="#21D4FD"/>
        <stop offset="1" stop-color="#21D4FD"/>
        </linearGradient>
        </defs>
    </symbol>

    <symbol id='close' viewBox="0 0 27 27" xmlns="http://www.w3.org/2000/svg">
        <path d="M16.3263 10.8046L13.5654 13.5655L16.3263 10.8046ZM13.5654 13.5655L10.8045 16.3264L13.5654 13.5655ZM13.5654 13.5655L16.3263 16.3264L13.5654 13.5655ZM13.5654 13.5655L10.8045 10.8046L13.5654 13.5655ZM21.8482 21.8483C20.7605 22.936 19.4692 23.7988 18.048 24.3875C16.6269 24.9761 15.1037 25.2791 13.5654 25.2791C12.0272 25.2791 10.504 24.9761 9.08283 24.3875C7.66167 23.7988 6.37038 22.936 5.28267 21.8483C4.19496 20.7606 3.33215 19.4693 2.74348 18.0481C2.15482 16.627 1.85184 15.1038 1.85184 13.5655C1.85184 12.0273 2.15482 10.5041 2.74348 9.08292C3.33215 7.66176 4.19496 6.37047 5.28267 5.28276C7.4794 3.08603 10.4588 1.85193 13.5654 1.85193C16.6721 1.85193 19.6515 3.08603 21.8482 5.28276C24.0449 7.47948 25.279 10.4589 25.279 13.5655C25.279 16.6722 24.0449 19.6515 21.8482 21.8483Z" stroke="white" stroke-width="2" stroke-linecap="round" stroke-linejoin="round"/>
    </symbol>

    <symbol id='logo' viewBox="0 0 29 29" xmlns="http://www.w3.org/2000/svg">
            <path fill-rule="evenodd" clip-rule="evenodd" d="M25.6725 3.05262H3.08771V25.3808H25.6725V3.05262ZM3.08771 0H0V3.05262V25.3808V28.4334H3.08771H25.6725H28.7602V25.3808V3.05262V0H25.6725H3.08771ZM20.9013 8.05166L20.3878 10.106C20.1744 10.9661 19.3887 11.5678 18.4886 11.5678H10.3502L10.8637 9.51038C11.0772 8.65338 11.8597 8.05166 12.7599 8.05166H20.9013ZM9.64595 14.5727C9.85874 13.7043 10.639 13.0915 11.5364 13.0915H17.2263L16.7143 15.1732C16.5015 16.0447 15.7182 16.6575 14.8208 16.6575H12.8101L12.1378 19.4568C11.9219 20.3283 11.1386 20.9442 10.2381 20.9442H8.09782L9.64595 14.5727Z"/>
    </symbol>

    <symbol id='messagers.nop' viewBox="0 0 18 12" xmlns="http://www.w3.org/2000/svg" >
        <path d="M18.0001 6.00007C18.0001 8.37007 17.5951 10.2901 17.1001 10.2901C16.6051 10.2901 16.1851 8.37007 16.1851 6.00007C16.1851 3.63007 16.5901 1.71007 17.1001 1.71007C17.6101 1.71007 18.0001 3.63007 18.0001 6.00007Z"/>
        <path d="M15.705 6.00015C15.705 8.65515 14.535 10.8001 13.08 10.8001C11.625 10.8001 10.5 8.65515 10.5 6.00015C10.5 3.34515 11.67 1.20015 13.11 1.20015C14.55 1.20015 15.705 3.34515 15.705 6.00015Z"/>
        <path d="M10.2 6.00006C10.2 7.00874 9.90089 7.99477 9.3405 8.83346C8.7801 9.67215 7.98359 10.3258 7.05169 10.7118C6.11978 11.0978 5.09434 11.1988 4.10504 11.0021C3.11574 10.8053 2.20701 10.3195 1.49376 9.6063C0.78051 8.89305 0.294782 7.98432 0.0979974 6.99502C-0.0987873 6.00571 0.00220974 4.98027 0.388217 4.04837C0.774224 3.11647 1.4279 2.31996 2.26659 1.75956C3.10528 1.19916 4.09132 0.900055 5.1 0.900055C6.45261 0.900055 7.74981 1.43738 8.70625 2.39381C9.66268 3.35025 10.2 4.64745 10.2 6.00006Z"/>
    </symbol>

    <symbol id='messagers.telegram' viewBox="0 0 17 15" xmlns="http://www.w3.org/2000/svg">
        <path d="M16.7098 1.57012L14.8198 13.0001C14.7864 13.2006 14.7034 13.3895 14.5781 13.5495C14.4529 13.7096 14.2896 13.8356 14.103 13.9162C13.9165 13.9968 13.7127 14.0293 13.5104 14.0108C13.308 13.9922 13.1136 13.9233 12.9448 13.8101L7.70975 10.2851C7.60297 10.2132 7.5138 10.1181 7.4489 10.0069C7.384 9.89573 7.34505 9.77132 7.33496 9.64297C7.32486 9.51462 7.34388 9.38565 7.3906 9.26569C7.43732 9.14572 7.51052 9.03785 7.60475 8.95012L12.5548 4.27012C12.6017 4.21404 12.6276 4.14337 12.6282 4.07025C12.6287 3.99712 12.6038 3.92608 12.5577 3.86932C12.5115 3.81256 12.4471 3.77362 12.3754 3.75917C12.3037 3.74472 12.2293 3.75566 12.1648 3.79012L5.57975 8.20012C5.26245 8.40897 4.9025 8.54429 4.5262 8.5962C4.14989 8.6481 3.76675 8.61528 3.40475 8.50012L0.599754 7.67512C0.499994 7.6323 0.414984 7.56116 0.355247 7.47051C0.295511 7.37986 0.263672 7.27368 0.263672 7.16512C0.263672 7.05656 0.295511 6.95038 0.355247 6.85973C0.414984 6.76908 0.499994 6.69795 0.599754 6.65512L9.25475 2.87512L14.6398 0.670123L15.3448 0.400123C15.5162 0.347798 15.6982 0.339614 15.8737 0.376329C16.0491 0.413044 16.2125 0.49347 16.3487 0.610152C16.4848 0.726833 16.5893 0.875993 16.6524 1.04381C16.7155 1.21162 16.7352 1.39265 16.7098 1.57012V1.57012Z"/>
    </symbol>

    <symbol id='messagers.twitter' viewBox="0 0 18 16" xmlns="http://www.w3.org/2000/svg">
        <path d="M18 2.46498C17.6335 3.21114 17.0329 3.81694 16.29 4.18998V4.77498C16.2925 6.67718 15.7862 8.54543 14.8236 10.1861C13.861 11.8267 12.4771 13.1801 10.8153 14.1058C9.15357 15.0315 7.27448 15.496 5.37281 15.451C3.47114 15.406 1.61611 14.8533 0 13.85C0.25951 13.8726 0.52049 13.8726 0.78 13.85C2.50974 13.8459 4.18662 13.2534 5.535 12.17C4.75625 12.1319 4.00471 11.8715 3.36936 11.4196C2.73401 10.9677 2.24145 10.3431 1.95 9.61998C2.19716 9.66799 2.44823 9.69309 2.7 9.69498C2.97703 9.68806 3.25299 9.65795 3.525 9.60498C2.82178 9.36053 2.18858 8.94869 1.68 8.40498C1.02164 7.71339 0.633119 6.80862 0.585 5.85498C1.04649 6.11189 1.5583 6.26543 2.085 6.30498C2.17942 6.31987 2.27558 6.31987 2.37 6.30498L2.16 6.13998C1.54227 5.63608 1.08378 4.96398 0.84 4.20498C0.720736 3.84706 0.659957 3.47225 0.66 3.09498C0.665648 2.44793 0.836002 1.81297 1.155 1.24998C1.25525 1.40609 1.37082 1.55181 1.5 1.68498C1.725 1.93998 1.965 2.19498 2.22 2.43498C2.94973 3.13586 3.78488 3.71794 4.695 4.15998C5.05235 4.34778 5.42341 4.50824 5.805 4.63998C6.10512 4.74576 6.41053 4.83588 6.72 4.90998C7.33963 5.06169 7.97267 5.15213 8.61 5.17998H8.88C8.71142 4.546 8.71142 3.87897 8.88 3.24498C8.93862 3.00867 9.02948 2.78154 9.15 2.56998C9.27001 2.36977 9.40542 2.17919 9.555 1.99998L9.66 1.86498C10.0011 1.4654 10.4195 1.13886 10.89 0.904982C11.1206 0.795503 11.3619 0.710052 11.61 0.649982L12 0.589982C12.1847 0.574539 12.3703 0.574539 12.555 0.589982C13.0741 0.590451 13.5874 0.698682 14.0625 0.907825C14.5376 1.11697 14.9641 1.42247 15.315 1.80498C15.5022 1.79083 15.6879 1.76072 15.87 1.71498C16.323 1.6252 16.7585 1.46313 17.16 1.23498C17.321 1.1526 17.472 1.05193 17.61 0.934982C17.388 1.72441 16.9073 2.4164 16.245 2.89998C16.8518 2.8643 17.4468 2.71683 18 2.46498Z"/>
    </symbol>
</svg>